HIERARCHY
ROOT SimulationBone
{
	OFFSET 0.000000 0.000000 0.000000
	CHANNELS 6 Xposition Yposition Zposition Zrotation Yrotation Xrotation 
	JOINT Hips
	{
		OFFSET 0.000000 0.000000 0.000000
		CHANNELS 6 Xposition Yposition Zposition Zrotation Yrotation Xrotation 
		JOINT RightUpLeg
		{
			OFFSET 0.103457 1.857834 10.548504
			CHANNELS 3 Zrotation Yrotation Xrotation
			JOINT RightLeg
			{
				OFFSET 43.499996 -0.000046 0.000000
				CHANNELS 3 Zrotation Yrotation Xrotation
				JOINT RightFoot
				{
					OFFSET 42.372192 0.000027 0.000002
					CHANNELS 3 Zrotation Yrotation Xrotation
					JOINT RightToe
					{
						OFFSET 17.299994 -0.000003 -0.000001
						CHANNELS 3 Zrotation Yrotation Xrotation
						End Site
						{
							OFFSET 0.000000 0.000000 0.000000
						}
					}
				}
			}
		}
		JOINT LeftUpLeg
		{
			OFFSET 0.103456 1.857832 -10.548504
			CHANNELS 3 Zrotation Yrotation Xrotation
			JOINT LeftLeg
			{
				OFFSET 43.500046 -0.000011 0.000010
				CHANNELS 3 Zrotation Yrotation Xrotation
				JOINT LeftFoot
				{
					OFFSET 42.372261 -0.000034 0.000021
					CHANNELS 3 Zrotation Yrotation Xrotation
					JOINT LeftToe
					{
						OFFSET 17.300011 0.000001 0.000002
						CHANNELS 3 Zrotation Yrotation Xrotation
						End Site
						{
							OFFSET 0.000000 0.000000 0.000000
						}
					}
				}
			}
		}
		JOINT Spine
		{
			OFFSET 6.901965 -2.603721 0.000001
			CHANNELS 3 Zrotation Yrotation Xrotation
			JOINT Spine1
			{
				OFFSET 12.588100 0.000000 -0.000000
				CHANNELS 3 Zrotation Yrotation Xrotation
				JOINT Spine2
				{
					OFFSET 12.343206 0.000005 0.000000
					CHANNELS 3 Zrotation Yrotation Xrotation
					JOINT Neck
					{
						OFFSET 25.832893 -0.000008 0.000000
						CHANNELS 3 Zrotation Yrotation Xrotation
						JOINT Head
						{
							OFFSET 11.766617 0.000009 0.000001
							CHANNELS 3 Zrotation Yrotation Xrotation
							End Site
							{
								OFFSET 0.000000 0.000000 0.000000
							}
						}
					}
					JOINT RightShoulder
					{
						OFFSET 19.745899 -1.480394 6.000106
						CHANNELS 3 Zrotation Yrotation Xrotation
						JOINT RightArm
						{
							OFFSET 11.284122 -0.000030 -0.000014
							CHANNELS 3 Zrotation Yrotation Xrotation
							JOINT RightForeArm
							{
								OFFSET 33.000050 0.000020 0.000016
								CHANNELS 3 Zrotation Yrotation Xrotation
								JOINT RightHand
								{
									OFFSET 25.200014 -0.000003 0.000011
									CHANNELS 3 Zrotation Yrotation Xrotation
									End Site
									{
										OFFSET 0.000000 0.000000 0.000000
									}
								}
							}
						}
					}
					JOINT LeftShoulder
					{
						OFFSET 19.746094 -1.480381 -6.000073
						CHANNELS 3 Zrotation Yrotation Xrotation
						JOINT LeftArm
						{
							OFFSET 11.284140 -0.000016 -0.000006
							CHANNELS 3 Zrotation Yrotation Xrotation
							JOINT LeftForeArm
							{
								OFFSET 33.000088 0.000015 0.000002
								CHANNELS 3 Zrotation Yrotation Xrotation
								JOINT LeftHand
								{
									OFFSET 25.199776 0.000133 0.000416
									CHANNELS 3 Zrotation Yrotation Xrotation
									End Site
									{
										OFFSET 0.000000 0.000000 0.000000
									}
								}
							}
						}
					}
				}
			}
		}
	}
}
MOTION
Frames: 15
Frame Time: 0.016667
-0.759835 0.000000 -432.343140 0.000000 97.539408 0.000000 3.115362 90.925531 1.377987 97.911839 3.583350 -179.783237 170.568834 -17.648696 175.365494 -18.546727 -2.308067 -12.847118 72.946196 6.442590 -9.788524 21.454560 0.003101 0.000017 -177.224572 -0.675236 -173.531571 -20.690199 3.894705 11.101402 88.656428 -7.072034 3.754350 21.454552 -0.003099 -0.000001 6.945070 0.742781 0.076290 3.878755 1.482669 0.177154 3.560537 1.483577 0.168192 -13.189624 7.044320 -0.878008 6.636432 -4.943381 2.580288 137.060912 -73.878345 42.545760 -11.652950 51.490479 48.200351 -39.469570 -15.334090 1.493523 10.850625 -1.124362 13.836271 -173.824117 80.915302 7.771083 -37.508656 -48.179914 -28.001187 -98.144067 0.817714 -2.724505 5.953699 -8.732704 -21.230141 
-1.132724 0.000000 -432.554058 0.000000 97.363750 0.000000 3.127584 90.954353 1.339399 97.839787 3.455449 -179.701471 170.605134 -17.358314 175.306340 -18.722283 -2.319230 -12.858971 72.824842 6.397008 -9.946103 21.454562 0.003099 0.000017 -177.064185 -0.300913 -173.516735 -20.547702 3.899694 11.006700 88.593536 -6.970724 3.998497 21.454553 -0.003096 -0.000001 6.886308 0.702470 0.090325 3.761280 1.401723 0.203157 3.443072 1.402790 0.194687 -13.157678 7.157829 -0.980000 6.724058 -5.080574 2.541376 137.198130 -74.039431 42.393369 -12.112648 51.388676 48.239327 -39.411096 -15.273859 1.488102 10.884029 -1.191952 14.089903 -172.333007 81.051512 9.285667 -37.990259 -48.583582 -27.920667 -97.825868 0.900343 -2.716146 6.206222 -8.525498 -22.209950 
-1.526965 0.000000 -432.771696 0.000000 97.178789 0.000000 3.143211 90.981381 1.298577 97.776733 3.314525 -179.631480 170.640744 -17.037919 175.220038 -18.947884 -2.319775 -12.866760 72.756377 6.375252 -10.023199 21.454560 0.003100 0.000017 -176.897505 0.090495 -173.482591 -20.420266 3.868273 10.893652 88.531057 -6.850999 4.273446 21.454553 -0.003090 0.000000 6.827011 0.658173 0.112923 3.642802 1.312576 0.246265 3.324617 1.313900 0.238324 -13.080199 7.226368 -1.072089 6.765071 -5.184427 2.488911 137.284710 -74.158157 42.295880 -12.554955 51.244311 48.293484 -39.405143 -15.197854 1.483053 10.895228 -1.266872 14.292694 -170.655967 81.189346 10.988266 -38.500338 -49.006572 -27.777618 -97.513456 0.985145 -2.708184 6.518076 -8.464244 -23.146972 
-1.942079 0.000000 -432.995773 0.000000 96.984637 0.000000 3.162361 91.007263 1.253617 97.720963 3.158359 -179.567381 170.673477 -16.692894 175.093853 -19.221870 -2.322701 -12.859341 72.742832 6.372408 -10.010680 21.454558 0.003103 0.000017 -176.721214 0.507906 -173.429322 -20.299971 3.814932 10.763553 88.468086 -6.714842 4.573751 21.454553 -0.003087 0.000001 6.768332 0.610435 0.140383 3.525579 1.216442 0.299089 3.207417 1.218083 0.291718 -12.986980 7.257488 -1.145653 6.784619 -5.259359 2.435337 137.350074 -74.242807 42.222727 -12.965873 51.064829 48.363510 -39.460184 -15.113132 1.478910 10.881660 -1.340008 14.451302 -168.782661 81.322997 12.889227 -39.061281 -49.433053 -27.563070 -97.186330 1.069999 -2.699546 6.817181 -8.471804 -24.137863 
-2.377287 0.000000 -433.225908 0.000000 96.781762 0.000000 3.184662 91.033131 1.201169 97.670316 2.984629 -179.508158 170.704834 -16.328049 174.906579 -19.537970 -2.338442 -12.824054 72.782374 6.380174 -9.905518 21.454557 0.003105 0.000018 -176.533025 0.963479 -173.355896 -20.178902 3.756470 10.614008 88.402810 -6.562025 4.892028 21.454551 -0.003092 0.000000 6.711152 0.559573 0.169889 3.411341 1.114037 0.355997 3.093187 1.116026 0.349243 -12.900757 7.267802 -1.198169 6.796850 -5.315898 2.391763 137.428517 -74.314042 42.137405 -13.349557 50.872613 48.443169 -39.567928 -15.026999 1.475903 10.838898 -1.398952 14.595222 -166.719334 81.453233 14.982114 -39.698579 -49.847059 -27.271735 -96.824275 1.152842 -2.689196 7.042047 -8.463472 -25.259241 
-2.831688 0.000000 -433.461666 0.000000 96.570589 0.000000 3.208093 91.060066 1.139823 97.625075 2.792249 -179.462492 170.745672 -15.943212 174.629181 -19.881103 -2.359714 -12.751545 72.866226 6.387199 -9.720226 21.454558 0.003106 0.000018 -176.335609 1.464203 -173.239443 -20.058853 3.691971 10.426377 88.333647 -6.380546 5.222564 21.454551 -0.003099 -0.000001 6.655616 0.505090 0.204023 3.300369 1.004301 0.422163 2.982221 1.006696 0.416081 -12.794365 7.256169 -1.234372 6.758272 -5.349098 2.353074 137.545718 -74.373789 42.013669 -13.728572 50.679480 48.510905 -39.705835 -14.938404 1.473930 10.748491 -1.417742 14.773257 -164.497591 81.605378 17.234585 -40.413419 -50.252996 -26.906319 -96.428343 1.240363 -2.677718 7.208688 -8.480910 -26.398948 
-3.304389 0.000000 -433.702509 0.000000 96.351056 0.000000 3.231150 91.088631 1.069393 97.586669 2.581939 -179.437990 170.806010 -15.537109 174.247369 -20.237800 -2.376542 -12.640493 72.987744 6.386623 -9.471797 21.454558 0.003106 0.000018 -176.129857 2.011585 -173.066803 -19.940362 3.618977 10.188537 88.259199 -6.162452 5.561798 21.454551 -0.003101 -0.000002 6.601819 0.447181 0.245319 3.192841 0.887576 0.502692 2.874709 0.890461 0.497326 -12.636267 7.211423 -1.256472 6.623740 -5.347808 2.311649 137.738402 -74.416827 41.814642 -14.122709 50.491545 48.549844 -39.849429 -14.848074 1.472798 10.599909 -1.381918 15.031962 -162.156142 81.792785 19.606829 -41.189690 -50.644135 -26.486226 -96.008886 1.337178 -2.665862 7.349469 -8.563639 -27.417530 
-3.794346 0.000000 -433.947689 0.000000 96.122898 0.000000 3.255935 91.117363 0.992334 97.558453 2.360755 -179.429953 170.884940 -15.109604 173.812701 -20.609905 -2.386281 -12.517999 73.156045 6.392741 -9.179454 21.454558 0.003107 0.000018 -175.906604 2.590997 -172.885448 -19.809582 3.546421 9.930747 88.178028 -5.927797 5.913301 21.454553 -0.003100 -0.000002 6.550435 0.389606 0.290718 3.090086 0.771483 0.591568 2.771971 0.774907 0.586905 -12.427387 7.099799 -1.249333 6.399112 -5.291323 2.265853 138.095794 -74.428041 41.450950 -14.523504 50.303181 48.576031 -39.980699 -14.772238 1.472151 10.427750 -1.337545 15.390090 -159.863716 81.955787 21.928125 -41.963100 -50.949604 -26.093137 -95.592205 1.430824 -2.653815 7.473853 -8.617534 -28.251640 
-4.300448 0.000000 -434.196317 0.000000 95.885896 0.000000 3.284917 91.144820 0.911682 97.542903 2.134662 -179.431426 170.982440 -14.659135 173.391675 -20.994992 -2.391255 -12.419169 73.379499 6.424509 -8.865846 21.454557 0.003110 0.000019 -175.657843 3.188006 -172.741915 -19.652442 3.482595 9.684520 88.088793 -5.697442 6.280838 21.454553 -0.003098 -0.000001 6.502269 0.335029 0.336538 2.993709 0.661451 0.681486 2.675605 0.665420 0.677472 -12.183266 6.912755 -1.205390 6.106758 -5.178375 2.219412 138.659829 -74.402786 40.880305 -14.921666 50.116022 48.605544 -40.085565 -14.725195 1.471747 10.276327 -1.335655 15.837331 -157.866722 82.027963 23.950292 -42.666549 -51.101239 -25.809291 -95.202108 1.508994 -2.641883 7.577841 -8.545969 -28.876979 
-4.821370 0.000000 -434.447653 0.000000 95.639531 0.000000 3.317824 91.171654 0.830123 97.537016 1.898906 -179.437933 171.110432 -14.176897 173.045657 -21.358316 -2.405453 -12.382676 73.647183 6.498867 -8.565444 21.454557 0.003113 0.000020 -175.386281 3.803895 -172.618538 -19.467774 3.421917 9.444021 87.991414 -5.467598 6.661542 21.454553 -0.003095 0.000000 6.458020 0.278208 0.382244 2.905070 0.546978 0.771230 2.586978 0.551489 0.767894 -11.944730 6.765978 -1.163080 5.784177 -5.094947 2.192935 139.241012 -74.391418 40.291013 -15.332223 49.971849 48.622039 -40.159090 -14.698033 1.471570 10.185436 -1.386100 16.273728 -156.296404 81.974994 25.542076 -43.291387 -51.099359 -25.634484 -94.836431 1.577045 -2.630402 7.639088 -8.375872 -29.353263 
-5.355282 0.000000 -434.701360 0.000000 95.383644 0.000000 3.353377 91.198626 0.748693 97.537138 1.647251 -179.446987 171.280839 -13.655296 172.817774 -21.665991 -2.444141 -12.437277 73.946860 6.627674 -8.306804 21.454557 0.003114 0.000019 -175.096919 4.443758 -172.484465 -19.258850 3.356846 9.194539 87.886443 -5.228711 7.050574 21.454551 -0.003091 0.000001 6.418294 0.213602 0.428499 2.825335 0.416939 0.861988 2.507264 0.421999 0.859443 -11.745504 6.763056 -1.157193 5.461923 -5.117081 2.204223 139.658849 -74.433995 39.863303 -15.762129 49.899902 48.604514 -40.204761 -14.675591 1.471602 10.171102 -1.478984 16.607168 -155.250183 81.786504 26.605894 -43.833877 -50.967781 -25.543799 -94.490014 1.642240 -2.619565 7.633905 -8.160172 -29.756091 
-5.900051 0.000000 -434.957393 0.000000 95.119727 0.000000 3.389908 91.224823 0.663714 97.542746 1.378136 -179.461614 171.491406 -13.098505 172.682960 -21.919873 -2.514572 -12.569022 74.280096 6.803032 -8.083577 21.454558 0.003110 0.000018 -174.795456 5.113007 -172.320277 -19.034173 3.285719 8.923315 87.775382 -4.972799 7.441973 21.454550 -0.003088 0.000001 6.383484 0.142400 0.477584 2.755282 0.273663 0.958356 2.437231 0.279306 0.956690 -11.567626 6.833500 -1.166578 5.127445 -5.194823 2.239018 139.967553 -74.466700 39.547192 -16.160006 49.839784 48.548424 -40.250656 -14.640948 1.471815 10.158339 -1.563440 16.867371 -154.842762 81.518614 27.024534 -44.242413 -50.758331 -25.504905 -94.171697 1.701811 -2.609543 7.546232 -7.932446 -30.138379 
-6.453352 0.000000 -435.215702 0.000000 94.850231 0.000000 3.425610 91.249114 0.569976 97.554873 1.090716 -179.491560 171.739688 -12.512174 172.589796 -22.128256 -2.616700 -12.750686 74.649734 7.009734 -7.880811 21.454557 0.003103 0.000017 -174.488989 5.818429 -172.119972 -18.805175 3.210027 8.621350 87.660082 -4.694413 7.830769 21.454551 -0.003086 0.000001 6.354622 0.067361 0.532163 2.696974 0.122611 1.065721 2.378933 0.128905 1.064974 -11.391093 6.876822 -1.159541 4.766968 -5.257390 2.278609 140.250119 -74.419798 39.263798 -16.475997 49.735775 48.453768 -40.319410 -14.587105 1.472132 10.069591 -1.610514 17.081094 -155.062845 81.239110 26.807371 -44.486659 -50.524627 -25.471897 -93.893204 1.751674 -2.600623 7.387381 -7.720771 -30.542435 
-7.012852 0.000000 -435.476198 0.000000 94.576639 0.000000 3.458433 91.271156 0.461000 97.577652 0.781914 -179.564806 172.037794 -11.896000 172.449805 -22.289803 -2.730438 -12.944602 75.050206 7.223643 -7.683996 21.454557 0.003099 0.000016 -174.190820 6.572498 -171.919837 -18.589900 3.137898 8.292709 87.542732 -4.396550 8.217131 21.454553 -0.003086 0.000001 6.335519 -0.009204 0.594828 2.658024 -0.031709 1.189298 2.339994 -0.024666 1.189479 -11.238975 6.847391 -1.115599 4.404628 -5.275958 2.321183 140.493573 -74.307127 39.025225 -16.729005 49.640175 48.316849 -40.387328 -14.548523 1.472504 9.906854 -1.723314 17.140869 -155.584029 81.000893 26.283624 -44.662640 -50.300425 -25.360218 -93.663783 1.792508 -2.593296 7.270778 -7.549473 -30.990268 
-7.576691 0.000000 -435.738929 0.000000 94.299109 0.000000 3.486023 91.290746 0.332890 97.613600 0.449385 -179.699789 172.391394 -11.248751 172.190843 -22.403728 -2.835111 -13.117091 75.473638 7.422439 -7.481590 21.454556 0.003104 0.000016 -173.914054 7.382842 -171.759238 -18.403418 3.076374 7.948743 87.425365 -4.086793 8.603855 21.454553 -0.003088 0.000000 6.329475 -0.086049 0.665843 2.645012 -0.186892 1.329594 2.327003 -0.179000 1.330703 -11.142760 6.732372 -1.023998 4.070257 -5.245537 2.371708 140.668260 -74.162724 38.858998 -16.951499 49.618890 48.126714 -40.419493 -14.559542 1.472956 9.697255 -1.994848 16.954833 -156.200163 80.834125 25.661663 -44.855342 -50.101497 -25.104918 -93.491643 1.824012 -2.587886 7.296345 -7.446782 -31.453224 
